<mxfile host="app.diagrams.net" modified="2024-05-23T12:02:23.456Z" agent="Mozilla/5.0 (Windows NT 10.0; Win64; x64) AppleWebKit/537.36 (KHTML, like Gecko) Chrome/124.0.0.0 Safari/537.36" etag="9yac79TmHCupx23bd536" version="24.4.6" type="device">
  <diagram name="Страница — 1" id="sEFmsitN1N0w2VjkOHWs">
    <mxGraphModel dx="1659" dy="906" grid="1" gridSize="10" guides="1" tooltips="1" connect="1" arrows="1" fold="1" page="1" pageScale="1" pageWidth="827" pageHeight="1169" math="0" shadow="0">
      <root>
        <mxCell id="0" />
        <mxCell id="1" parent="0" />
        <mxCell id="eNgjsiifnA62V_6BFaNt-9" value="" style="rounded=0;whiteSpace=wrap;html=1;fillColor=#d5e8d4;strokeColor=default;glass=0;dashed=1;opacity=40;" vertex="1" parent="1">
          <mxGeometry x="40" y="160" width="160" height="200" as="geometry" />
        </mxCell>
        <mxCell id="eNgjsiifnA62V_6BFaNt-8" value="" style="rounded=0;whiteSpace=wrap;html=1;fillColor=#dae8fc;strokeColor=default;glass=0;dashed=1;opacity=40;" vertex="1" parent="1">
          <mxGeometry x="400" y="160" width="160" height="200" as="geometry" />
        </mxCell>
        <mxCell id="eNgjsiifnA62V_6BFaNt-1" value="Client" style="ellipse;whiteSpace=wrap;html=1;aspect=fixed;fillColor=#f8cecc;strokeColor=default;" vertex="1" parent="1">
          <mxGeometry x="80" y="40" width="80" height="80" as="geometry" />
        </mxCell>
        <mxCell id="eNgjsiifnA62V_6BFaNt-2" value="Service payment" style="rounded=1;whiteSpace=wrap;html=1;fillColor=#dae8fc;strokeColor=default;" vertex="1" parent="1">
          <mxGeometry x="420" y="190" width="120" height="50" as="geometry" />
        </mxCell>
        <mxCell id="eNgjsiifnA62V_6BFaNt-5" value="Database b" style="strokeWidth=1;html=1;shape=mxgraph.flowchart.database;whiteSpace=wrap;fillColor=#dae8fc;strokeColor=default;" vertex="1" parent="1">
          <mxGeometry x="435" y="270" width="90" height="50" as="geometry" />
        </mxCell>
        <mxCell id="eNgjsiifnA62V_6BFaNt-6" style="edgeStyle=orthogonalEdgeStyle;rounded=0;orthogonalLoop=1;jettySize=auto;html=1;entryX=0.5;entryY=0;entryDx=0;entryDy=0;entryPerimeter=0;" edge="1" parent="1" source="eNgjsiifnA62V_6BFaNt-2" target="eNgjsiifnA62V_6BFaNt-5">
          <mxGeometry relative="1" as="geometry" />
        </mxCell>
        <mxCell id="eNgjsiifnA62V_6BFaNt-10" value="Service order" style="rounded=1;whiteSpace=wrap;html=1;fillColor=#d5e8d4;strokeColor=default;" vertex="1" parent="1">
          <mxGeometry x="60" y="190" width="120" height="50" as="geometry" />
        </mxCell>
        <mxCell id="eNgjsiifnA62V_6BFaNt-11" value="Database o" style="strokeWidth=1;html=1;shape=mxgraph.flowchart.database;whiteSpace=wrap;fillColor=#d5e8d4;strokeColor=default;" vertex="1" parent="1">
          <mxGeometry x="75" y="270" width="90" height="50" as="geometry" />
        </mxCell>
        <mxCell id="eNgjsiifnA62V_6BFaNt-12" style="edgeStyle=orthogonalEdgeStyle;rounded=0;orthogonalLoop=1;jettySize=auto;html=1;entryX=0.5;entryY=0;entryDx=0;entryDy=0;entryPerimeter=0;" edge="1" parent="1" source="eNgjsiifnA62V_6BFaNt-10" target="eNgjsiifnA62V_6BFaNt-11">
          <mxGeometry relative="1" as="geometry" />
        </mxCell>
        <mxCell id="eNgjsiifnA62V_6BFaNt-16" value="" style="endArrow=classic;startArrow=classic;html=1;rounded=1;exitX=0.5;exitY=0;exitDx=0;exitDy=0;entryX=1;entryY=0.5;entryDx=0;entryDy=0;curved=0;" edge="1" parent="1" source="eNgjsiifnA62V_6BFaNt-2" target="eNgjsiifnA62V_6BFaNt-1">
          <mxGeometry width="50" height="50" relative="1" as="geometry">
            <mxPoint x="550" y="140" as="sourcePoint" />
            <mxPoint x="600" y="90" as="targetPoint" />
            <Array as="points">
              <mxPoint x="480" y="80" />
            </Array>
          </mxGeometry>
        </mxCell>
        <mxCell id="eNgjsiifnA62V_6BFaNt-48" value="Account replenishment" style="edgeLabel;html=1;align=center;verticalAlign=middle;resizable=0;points=[];" vertex="1" connectable="0" parent="eNgjsiifnA62V_6BFaNt-16">
          <mxGeometry x="0.3288" relative="1" as="geometry">
            <mxPoint as="offset" />
          </mxGeometry>
        </mxCell>
        <mxCell id="eNgjsiifnA62V_6BFaNt-19" value="ActiveMQ" style="strokeWidth=1;html=1;shape=mxgraph.flowchart.direct_data;whiteSpace=wrap;fillColor=#ffe6cc;strokeColor=default;" vertex="1" parent="1">
          <mxGeometry x="600" y="190" width="120" height="50" as="geometry" />
        </mxCell>
        <mxCell id="eNgjsiifnA62V_6BFaNt-21" value="" style="endArrow=classic;html=1;rounded=0;exitX=1;exitY=0.25;exitDx=0;exitDy=0;entryX=0.01;entryY=0.251;entryDx=0;entryDy=0;entryPerimeter=0;" edge="1" parent="1">
          <mxGeometry width="50" height="50" relative="1" as="geometry">
            <mxPoint x="540" y="199.99999999999994" as="sourcePoint" />
            <mxPoint x="601.1999999999999" y="200.05" as="targetPoint" />
          </mxGeometry>
        </mxCell>
        <mxCell id="eNgjsiifnA62V_6BFaNt-22" value="" style="endArrow=classic;html=1;rounded=1;exitX=1;exitY=0.75;exitDx=0;exitDy=0;entryX=0.011;entryY=0.751;entryDx=0;entryDy=0;entryPerimeter=0;dashed=1;curved=0;startArrow=none;startFill=0;endFill=1;" edge="1" parent="1" source="eNgjsiifnA62V_6BFaNt-2" target="eNgjsiifnA62V_6BFaNt-19">
          <mxGeometry width="50" height="50" relative="1" as="geometry">
            <mxPoint x="540" y="230" as="sourcePoint" />
            <mxPoint x="601" y="230" as="targetPoint" />
          </mxGeometry>
        </mxCell>
        <mxCell id="eNgjsiifnA62V_6BFaNt-24" value="" style="rounded=0;whiteSpace=wrap;html=1;fillColor=#fff2cc;strokeColor=default;glass=0;dashed=1;opacity=40;" vertex="1" parent="1">
          <mxGeometry x="760" y="160" width="160" height="200" as="geometry" />
        </mxCell>
        <mxCell id="eNgjsiifnA62V_6BFaNt-25" value="Service store" style="rounded=1;whiteSpace=wrap;html=1;fillColor=#fff2cc;strokeColor=default;" vertex="1" parent="1">
          <mxGeometry x="780" y="190" width="120" height="50" as="geometry" />
        </mxCell>
        <mxCell id="eNgjsiifnA62V_6BFaNt-26" value="Database s" style="strokeWidth=1;html=1;shape=mxgraph.flowchart.database;whiteSpace=wrap;fillColor=#fff2cc;strokeColor=default;" vertex="1" parent="1">
          <mxGeometry x="795" y="270" width="90" height="50" as="geometry" />
        </mxCell>
        <mxCell id="eNgjsiifnA62V_6BFaNt-27" style="edgeStyle=orthogonalEdgeStyle;rounded=0;orthogonalLoop=1;jettySize=auto;html=1;entryX=0.5;entryY=0;entryDx=0;entryDy=0;entryPerimeter=0;" edge="1" parent="1" source="eNgjsiifnA62V_6BFaNt-25" target="eNgjsiifnA62V_6BFaNt-26">
          <mxGeometry relative="1" as="geometry" />
        </mxCell>
        <mxCell id="eNgjsiifnA62V_6BFaNt-28" value="" style="endArrow=classic;startArrow=classic;html=1;rounded=0;exitX=0.5;exitY=0;exitDx=0;exitDy=0;entryX=0.5;entryY=1;entryDx=0;entryDy=0;" edge="1" parent="1" source="eNgjsiifnA62V_6BFaNt-10" target="eNgjsiifnA62V_6BFaNt-1">
          <mxGeometry width="50" height="50" relative="1" as="geometry">
            <mxPoint x="400" y="300" as="sourcePoint" />
            <mxPoint x="450" y="250" as="targetPoint" />
          </mxGeometry>
        </mxCell>
        <mxCell id="eNgjsiifnA62V_6BFaNt-49" value="Create an order" style="edgeLabel;html=1;align=center;verticalAlign=middle;resizable=0;points=[];" vertex="1" connectable="0" parent="eNgjsiifnA62V_6BFaNt-28">
          <mxGeometry x="0.2831" y="1" relative="1" as="geometry">
            <mxPoint as="offset" />
          </mxGeometry>
        </mxCell>
        <mxCell id="eNgjsiifnA62V_6BFaNt-29" value="ActiveMQ" style="strokeWidth=1;html=1;shape=mxgraph.flowchart.direct_data;whiteSpace=wrap;fillColor=#ffe6cc;strokeColor=default;" vertex="1" parent="1">
          <mxGeometry x="240" y="190" width="120" height="50" as="geometry" />
        </mxCell>
        <mxCell id="eNgjsiifnA62V_6BFaNt-30" value="" style="endArrow=classic;html=1;rounded=0;exitX=1;exitY=0.25;exitDx=0;exitDy=0;entryX=0.01;entryY=0.251;entryDx=0;entryDy=0;entryPerimeter=0;" edge="1" parent="1">
          <mxGeometry width="50" height="50" relative="1" as="geometry">
            <mxPoint x="180" y="200" as="sourcePoint" />
            <mxPoint x="241" y="200" as="targetPoint" />
          </mxGeometry>
        </mxCell>
        <mxCell id="eNgjsiifnA62V_6BFaNt-31" value="" style="endArrow=classic;html=1;rounded=1;exitX=1;exitY=0.75;exitDx=0;exitDy=0;entryX=0.011;entryY=0.751;entryDx=0;entryDy=0;entryPerimeter=0;dashed=1;curved=0;startArrow=none;startFill=0;endFill=1;" edge="1" parent="1">
          <mxGeometry width="50" height="50" relative="1" as="geometry">
            <mxPoint x="179" y="230" as="sourcePoint" />
            <mxPoint x="240" y="230" as="targetPoint" />
          </mxGeometry>
        </mxCell>
        <mxCell id="eNgjsiifnA62V_6BFaNt-32" value="" style="endArrow=none;html=1;rounded=1;exitX=1;exitY=0.75;exitDx=0;exitDy=0;entryX=0.011;entryY=0.751;entryDx=0;entryDy=0;entryPerimeter=0;dashed=1;curved=0;startArrow=classic;startFill=1;endFill=0;" edge="1" parent="1">
          <mxGeometry width="50" height="50" relative="1" as="geometry">
            <mxPoint x="359" y="200" as="sourcePoint" />
            <mxPoint x="420" y="200" as="targetPoint" />
          </mxGeometry>
        </mxCell>
        <mxCell id="eNgjsiifnA62V_6BFaNt-34" value="" style="endArrow=none;html=1;rounded=1;exitX=1;exitY=0.75;exitDx=0;exitDy=0;entryX=0.011;entryY=0.751;entryDx=0;entryDy=0;entryPerimeter=0;curved=0;startArrow=classic;startFill=1;endFill=0;" edge="1" parent="1">
          <mxGeometry width="50" height="50" relative="1" as="geometry">
            <mxPoint x="359" y="230" as="sourcePoint" />
            <mxPoint x="420" y="230" as="targetPoint" />
          </mxGeometry>
        </mxCell>
        <mxCell id="eNgjsiifnA62V_6BFaNt-35" value="" style="endArrow=none;html=1;rounded=1;exitX=1;exitY=0.75;exitDx=0;exitDy=0;entryX=0.011;entryY=0.751;entryDx=0;entryDy=0;entryPerimeter=0;dashed=1;curved=0;startArrow=classic;startFill=1;endFill=0;" edge="1" parent="1">
          <mxGeometry width="50" height="50" relative="1" as="geometry">
            <mxPoint x="719" y="200" as="sourcePoint" />
            <mxPoint x="780" y="200" as="targetPoint" />
          </mxGeometry>
        </mxCell>
        <mxCell id="eNgjsiifnA62V_6BFaNt-36" value="" style="endArrow=none;html=1;rounded=1;exitX=1;exitY=0.75;exitDx=0;exitDy=0;entryX=0.011;entryY=0.751;entryDx=0;entryDy=0;entryPerimeter=0;curved=0;startArrow=classic;startFill=1;endFill=0;" edge="1" parent="1">
          <mxGeometry width="50" height="50" relative="1" as="geometry">
            <mxPoint x="719" y="230" as="sourcePoint" />
            <mxPoint x="780" y="230" as="targetPoint" />
          </mxGeometry>
        </mxCell>
        <mxCell id="eNgjsiifnA62V_6BFaNt-37" value="ActiveMQ" style="strokeWidth=1;html=1;shape=mxgraph.flowchart.direct_data;whiteSpace=wrap;fillColor=#ffe6cc;strokeColor=default;" vertex="1" parent="1">
          <mxGeometry x="960" y="190" width="120" height="50" as="geometry" />
        </mxCell>
        <mxCell id="eNgjsiifnA62V_6BFaNt-38" value="" style="rounded=0;whiteSpace=wrap;html=1;fillColor=#f8cecc;strokeColor=default;glass=0;dashed=1;opacity=40;" vertex="1" parent="1">
          <mxGeometry x="1120" y="160" width="160" height="200" as="geometry" />
        </mxCell>
        <mxCell id="eNgjsiifnA62V_6BFaNt-39" value="Service delivery" style="rounded=1;whiteSpace=wrap;html=1;fillColor=#f8cecc;strokeColor=default;" vertex="1" parent="1">
          <mxGeometry x="1140" y="190" width="120" height="50" as="geometry" />
        </mxCell>
        <mxCell id="eNgjsiifnA62V_6BFaNt-40" value="Database d" style="strokeWidth=1;html=1;shape=mxgraph.flowchart.database;whiteSpace=wrap;fillColor=#f8cecc;strokeColor=default;" vertex="1" parent="1">
          <mxGeometry x="1155" y="270" width="90" height="50" as="geometry" />
        </mxCell>
        <mxCell id="eNgjsiifnA62V_6BFaNt-41" style="edgeStyle=orthogonalEdgeStyle;rounded=0;orthogonalLoop=1;jettySize=auto;html=1;entryX=0.5;entryY=0;entryDx=0;entryDy=0;entryPerimeter=0;" edge="1" parent="1" source="eNgjsiifnA62V_6BFaNt-39" target="eNgjsiifnA62V_6BFaNt-40">
          <mxGeometry relative="1" as="geometry" />
        </mxCell>
        <mxCell id="eNgjsiifnA62V_6BFaNt-42" value="" style="endArrow=classic;html=1;rounded=0;exitX=1;exitY=0.25;exitDx=0;exitDy=0;entryX=0.01;entryY=0.251;entryDx=0;entryDy=0;entryPerimeter=0;" edge="1" parent="1">
          <mxGeometry width="50" height="50" relative="1" as="geometry">
            <mxPoint x="900" y="199.99999999999994" as="sourcePoint" />
            <mxPoint x="961.2" y="200.05" as="targetPoint" />
          </mxGeometry>
        </mxCell>
        <mxCell id="eNgjsiifnA62V_6BFaNt-43" value="" style="endArrow=none;html=1;rounded=1;exitX=1;exitY=0.75;exitDx=0;exitDy=0;entryX=0.011;entryY=0.751;entryDx=0;entryDy=0;entryPerimeter=0;curved=0;startArrow=classic;startFill=1;endFill=0;" edge="1" parent="1">
          <mxGeometry width="50" height="50" relative="1" as="geometry">
            <mxPoint x="1079" y="230" as="sourcePoint" />
            <mxPoint x="1140" y="230" as="targetPoint" />
          </mxGeometry>
        </mxCell>
        <mxCell id="eNgjsiifnA62V_6BFaNt-44" value="" style="endArrow=none;html=1;rounded=1;exitX=1;exitY=0.75;exitDx=0;exitDy=0;entryX=0.011;entryY=0.751;entryDx=0;entryDy=0;entryPerimeter=0;dashed=1;curved=0;startArrow=classic;startFill=1;endFill=0;" edge="1" parent="1">
          <mxGeometry width="50" height="50" relative="1" as="geometry">
            <mxPoint x="1079" y="200" as="sourcePoint" />
            <mxPoint x="1140" y="200" as="targetPoint" />
          </mxGeometry>
        </mxCell>
        <mxCell id="eNgjsiifnA62V_6BFaNt-45" value="" style="endArrow=classic;html=1;rounded=1;exitX=1;exitY=0.75;exitDx=0;exitDy=0;entryX=0.011;entryY=0.751;entryDx=0;entryDy=0;entryPerimeter=0;dashed=1;curved=0;startArrow=none;startFill=0;endFill=1;" edge="1" parent="1">
          <mxGeometry width="50" height="50" relative="1" as="geometry">
            <mxPoint x="900" y="230" as="sourcePoint" />
            <mxPoint x="961" y="230" as="targetPoint" />
          </mxGeometry>
        </mxCell>
        <mxCell id="eNgjsiifnA62V_6BFaNt-50" value="" style="endArrow=classic;html=1;rounded=0;exitX=1;exitY=0.25;exitDx=0;exitDy=0;" edge="1" parent="1">
          <mxGeometry width="50" height="50" relative="1" as="geometry">
            <mxPoint x="1120" y="39.99999999999994" as="sourcePoint" />
            <mxPoint x="1200" y="40" as="targetPoint" />
          </mxGeometry>
        </mxCell>
        <mxCell id="eNgjsiifnA62V_6BFaNt-51" value="" style="endArrow=classic;html=1;rounded=1;exitX=1;exitY=0.75;exitDx=0;exitDy=0;dashed=1;curved=0;startArrow=none;startFill=0;endFill=1;" edge="1" parent="1">
          <mxGeometry width="50" height="50" relative="1" as="geometry">
            <mxPoint x="1120" y="60" as="sourcePoint" />
            <mxPoint x="1200" y="60" as="targetPoint" />
          </mxGeometry>
        </mxCell>
        <mxCell id="eNgjsiifnA62V_6BFaNt-52" value="Transaction boundary" style="rounded=0;whiteSpace=wrap;html=1;fillColor=#e1d5e7;strokeColor=default;glass=0;dashed=1;opacity=40;" vertex="1" parent="1">
          <mxGeometry x="1120" y="80" width="160" height="40" as="geometry" />
        </mxCell>
        <mxCell id="eNgjsiifnA62V_6BFaNt-53" value="Write" style="text;html=1;align=center;verticalAlign=middle;whiteSpace=wrap;rounded=0;" vertex="1" parent="1">
          <mxGeometry x="1220" y="30" width="60" height="20" as="geometry" />
        </mxCell>
        <mxCell id="eNgjsiifnA62V_6BFaNt-54" value="Read" style="text;html=1;align=center;verticalAlign=middle;whiteSpace=wrap;rounded=0;" vertex="1" parent="1">
          <mxGeometry x="1220" y="50" width="60" height="20" as="geometry" />
        </mxCell>
      </root>
    </mxGraphModel>
  </diagram>
</mxfile>
